<svg width="420" height="171" viewBox="0 0 420 171" fill="none" xmlns="http://www.w3.org/2000/svg">
<g clip-path="url(#clip0_40_1401)">
<path d="M40.4697 147.455L39.8081 146.684C45.4056 141.886 52.372 135.916 54.9795 128.026C57.5499 120.247 55.6163 110.856 49.9333 103.518C45.0969 97.2725 37.6289 92.3544 28.3367 89.2953C26.5038 88.6918 24.6009 88.1559 22.7604 87.6374C18.312 86.3845 13.7121 85.0886 9.6384 82.7205C4.02765 79.4588 -1.06861 73.052 0.194248 66.0916C0.622963 63.8645 1.66755 61.8021 3.2094 60.1388C4.75125 58.4754 6.7286 57.2777 8.91691 56.6816L9.1874 57.662C7.18256 58.2078 5.37085 59.3046 3.95785 60.8279C2.54486 62.3513 1.58716 64.2402 1.19345 66.2803C0.0199312 72.7485 4.84573 78.7581 10.1495 81.8415C14.1118 84.1448 18.6487 85.4228 23.0361 86.6586C24.8869 87.18 26.8009 87.7192 28.6548 88.3295C38.1403 91.4523 45.7764 96.4889 50.7373 102.895C56.6246 110.498 58.6201 120.249 55.945 128.345C53.2486 136.504 46.1631 142.577 40.4697 147.455Z" fill="#F1F1F1"/>
<path d="M16.3482 60.5592C21.1514 59.5214 24.6366 56.7889 24.1325 54.4559C23.6284 52.1229 19.3261 51.073 14.5229 52.1107C9.71968 53.1485 6.23455 55.881 6.7386 58.214C7.24266 60.547 11.545 61.5969 16.3482 60.5592Z" fill="#F1F1F1"/>
<path d="M29.3187 86.8863C34.1219 85.8486 37.607 83.116 37.1029 80.7831C36.5989 78.4501 32.2965 77.4001 27.4933 78.4379C22.6901 79.4756 19.205 82.2081 19.7091 84.5411C20.2131 86.8741 24.5155 87.9241 29.3187 86.8863Z" fill="#F1F1F1"/>
<path d="M14.3819 94.7948C19.1851 93.757 22.6702 91.0245 22.1662 88.6915C21.6621 86.3585 17.3598 85.3086 12.5566 86.3463C7.75338 87.3841 4.26824 90.1166 4.77229 92.4496C5.27635 94.7826 9.57872 95.8325 14.3819 94.7948Z" fill="#F1F1F1"/>
<path d="M139.426 90.6052H138.409V93.6558H139.426V90.6052Z" fill="#E5E5E5"/>
<path d="M139.426 158.654H138.409V152.154H139.426V158.654ZM139.426 145.655H138.409V139.155H139.426V145.655ZM139.426 132.655H138.409V126.155H139.426V132.655ZM139.426 119.655H138.409V113.155H139.426V119.655ZM139.426 106.655H138.409V100.156H139.426V106.655Z" fill="#E5E5E5"/>
<path d="M139.426 165.154H138.409V168.205H139.426V165.154Z" fill="#E5E5E5"/>
<path d="M250.773 90.6052H249.756V93.6558H250.773V90.6052Z" fill="#E5E5E5"/>
<path d="M250.773 158.654H249.756V152.154H250.773V158.654ZM250.773 145.655H249.756V139.155H250.773V145.655ZM250.773 132.655H249.756V126.155H250.773V132.655ZM250.773 119.655H249.756V113.155H250.773V119.655ZM250.773 106.655H249.756V100.156H250.773V106.655Z" fill="#E5E5E5"/>
<path d="M250.773 165.154H249.756V168.205H250.773V165.154Z" fill="#E5E5E5"/>
<path d="M306.94 30.927H305.923V33.9776H306.94V30.927Z" fill="#E5E5E5"/>
<path d="M306.94 158.908H305.923V152.661H306.94V158.908ZM306.94 146.415H305.923V140.168H306.94V146.415ZM306.94 133.921H305.923V127.675H306.94V133.921ZM306.94 121.429H305.923V115.182H306.94V121.429ZM306.94 108.936H305.923V102.689H306.94V108.936ZM306.94 96.4425H305.923V90.196H306.94V96.4425ZM306.94 83.9496H305.923V77.7031H306.94V83.9496ZM306.94 71.4567H305.923V65.2102H306.94V71.4567ZM306.94 58.9635H305.923V52.717H306.94V58.9635ZM306.94 46.4706H305.923V40.2241H306.94V46.4706Z" fill="#E5E5E5"/>
<path d="M306.94 165.154H305.923V168.205H306.94V165.154Z" fill="#E5E5E5"/>
<path d="M362.547 6.52222H361.53V9.57283H362.547V6.52222Z" fill="#E5E5E5"/>
<path d="M362.547 158.931H361.53V152.708H362.547V158.931ZM362.547 146.484H361.53V140.261H362.547V146.484ZM362.547 134.038H361.53V127.815H362.547V134.038ZM362.547 121.591H361.53V115.368H362.547V121.591ZM362.547 109.145H361.53V102.922H362.547V109.145ZM362.547 96.6984H361.53V90.4751H362.547V96.6984ZM362.547 84.2519H361.53V78.0286H362.547V84.2519ZM362.547 71.8054H361.53V65.5821H362.547V71.8054ZM362.547 59.3589H361.53V53.1356H362.547V59.3589ZM362.547 46.9124H361.53V40.6891H362.547V46.9124ZM362.547 34.4659H361.53V28.2426H362.547V34.4659ZM362.547 22.0194H361.53V15.7961H362.547V22.0194Z" fill="#E5E5E5"/>
<path d="M362.547 165.154H361.53V168.205H362.547V165.154Z" fill="#E5E5E5"/>
<path d="M195.354 49.7393H194.337V52.7899H195.354V49.7393Z" fill="#E5E5E5"/>
<path d="M195.354 159.24H194.337V153.326H195.354V159.24ZM195.354 147.412H194.337V141.499H195.354V147.412ZM195.354 135.585H194.337V129.671H195.354V135.585ZM195.354 123.757H194.337V117.843H195.354V123.757ZM195.354 111.929H194.337V106.015H195.354V111.929ZM195.354 100.101H194.337V94.1873H195.354V100.101ZM195.354 88.2733H194.337V82.3595H195.354V88.2733ZM195.354 76.4455H194.337V70.5317H195.354V76.4455ZM195.354 64.6176H194.337V58.7039H195.354V64.6176Z" fill="#E5E5E5"/>
<path d="M195.354 165.154H194.337V168.205H195.354V165.154Z" fill="#E5E5E5"/>
<path d="M418.946 169.621H82.3006C82.0212 169.621 81.7532 169.51 81.5557 169.313C81.3581 169.115 81.2471 168.847 81.2471 168.568V7.21333C81.2477 6.93432 81.359 6.66694 81.5565 6.46986C81.754 6.27278 82.0216 6.16211 82.3006 6.16211C82.5796 6.16211 82.8473 6.27278 83.0448 6.46986C83.2423 6.66694 83.3535 6.93432 83.3542 7.21333V167.514H418.946C419.085 167.514 419.222 167.541 419.35 167.594C419.478 167.646 419.595 167.724 419.693 167.822C419.791 167.92 419.869 168.036 419.922 168.164C419.975 168.292 420.002 168.429 420.002 168.568C420.002 168.706 419.975 168.843 419.922 168.971C419.869 169.099 419.791 169.216 419.693 169.313C419.595 169.411 419.478 169.489 419.35 169.542C419.222 169.594 419.085 169.621 418.946 169.621Z" fill="#3F3D56"/>
<path d="M250.727 92.0212L194.756 50.0982L139.549 91.4482L138.286 89.7617L194.756 47.465L250.46 89.1887L305.816 28.6117L306.038 28.5217L361.876 6.02393L362.664 7.97886L307.048 30.3866L250.727 92.0212Z" fill="#3F3D56"/>
<path d="M138.918 96.9263C142.409 96.9263 145.239 94.0961 145.239 90.605C145.239 87.1138 142.409 84.2837 138.918 84.2837C135.427 84.2837 132.596 87.1138 132.596 90.605C132.596 94.0961 135.427 96.9263 138.918 96.9263Z" fill="#00B0FF"/>
<path d="M194.756 55.8381C198.247 55.8381 201.077 53.008 201.077 49.5168C201.077 46.0257 198.247 43.1956 194.756 43.1956C191.265 43.1956 188.435 46.0257 188.435 49.5168C188.435 53.008 191.265 55.8381 194.756 55.8381Z" fill="#00B0FF"/>
<path d="M250.594 96.9263C254.085 96.9263 256.915 94.0961 256.915 90.605C256.915 87.1138 254.085 84.2837 250.594 84.2837C247.103 84.2837 244.272 87.1138 244.272 90.605C244.272 94.0961 247.103 96.9263 250.594 96.9263Z" fill="#E5E5E5"/>
<path d="M249.068 119.298C252.559 119.298 255.39 116.467 255.39 112.976C255.39 109.485 252.559 106.655 249.068 106.655C245.577 106.655 242.747 109.485 242.747 112.976C242.747 116.467 245.577 119.298 249.068 119.298Z" fill="#00B0FF"/>
<path d="M306.432 35.8206C309.923 35.8206 312.753 32.9904 312.753 29.4993C312.753 26.0081 309.923 23.178 306.432 23.178C302.941 23.178 300.11 26.0081 300.11 29.4993C300.11 32.9904 302.941 35.8206 306.432 35.8206Z" fill="#00B0FF"/>
<path d="M362.27 12.6426C365.761 12.6426 368.591 9.81244 368.591 6.32129C368.591 2.83014 365.761 0 362.27 0C358.778 0 355.948 2.83014 355.948 6.32129C355.948 9.81244 358.778 12.6426 362.27 12.6426Z" fill="#00B0FF"/>
<path d="M80.5478 123.702C82.7066 118.054 83.0193 112.925 81.2462 112.248C79.473 111.57 76.2855 115.599 74.1267 121.247C71.9679 126.896 71.6552 132.024 73.4283 132.701C75.2014 133.379 78.3889 129.35 80.5478 123.702Z" fill="#2F2E41"/>
<path d="M57.0979 160.907C69.1913 160.907 78.9949 151.103 78.9949 139.01C78.9949 126.917 69.1913 117.113 57.0979 117.113C45.0045 117.113 35.2009 126.917 35.2009 139.01C35.2009 151.103 45.0045 160.907 57.0979 160.907Z" fill="#2F2E41"/>
<path d="M53.7719 156.195H47.1196V168.114H53.7719V156.195Z" fill="#2F2E41"/>
<path d="M67.0763 156.195H60.4241V168.114H67.0763V156.195Z" fill="#2F2E41"/>
<path d="M52.6632 170.331C55.7248 170.331 58.2067 169.4 58.2067 168.252C58.2067 167.104 55.7248 166.173 52.6632 166.173C49.6016 166.173 47.1196 167.104 47.1196 168.252C47.1196 169.4 49.6016 170.331 52.6632 170.331Z" fill="#2F2E41"/>
<path d="M65.9676 170.054C69.0292 170.054 71.5112 169.123 71.5112 167.975C71.5112 166.827 69.0292 165.896 65.9676 165.896C62.906 165.896 60.4241 166.827 60.4241 167.975C60.4241 169.123 62.906 170.054 65.9676 170.054Z" fill="#2F2E41"/>
<path d="M57.6522 140.95C61.7854 140.95 65.136 137.6 65.136 133.466C65.136 129.333 61.7854 125.983 57.6522 125.983C53.5191 125.983 50.1685 129.333 50.1685 133.466C50.1685 137.6 53.5191 140.95 57.6522 140.95Z" fill="white"/>
<path d="M57.6523 135.961C59.03 135.961 60.1469 134.844 60.1469 133.467C60.1469 132.089 59.03 130.972 57.6523 130.972C56.2746 130.972 55.1577 132.089 55.1577 133.467C55.1577 134.844 56.2746 135.961 57.6523 135.961Z" fill="#3F3D56"/>
<path d="M35.8572 118.646C34.0891 110.728 39.7409 102.727 48.4809 100.776C57.2209 98.8239 65.7394 103.661 67.5074 111.579C69.2755 119.497 63.4832 122.418 54.7432 124.369C46.0033 126.321 37.6252 126.565 35.8572 118.646Z" fill="#E6E6E6"/>
<path d="M42.327 133.541C43.1404 131.826 39.371 128.335 33.9076 125.744C28.4443 123.153 23.3559 122.443 22.5425 124.158C21.729 125.873 25.4985 129.364 30.9618 131.955C36.4252 134.546 41.5135 135.257 42.327 133.541Z" fill="#2F2E41"/>
<path d="M46.3423 146.91C46.3423 149.053 51.8605 153.285 57.9837 153.285C64.107 153.285 69.8481 147.251 69.8481 145.108C69.8481 142.965 64.1069 145.524 57.9837 145.524C51.8605 145.524 46.3423 144.766 46.3423 146.91Z" fill="white"/>
<path d="M222.405 157.422C234.499 157.422 244.302 147.619 244.302 135.525C244.302 123.432 234.499 113.628 222.405 113.628C210.312 113.628 200.508 123.432 200.508 135.525C200.508 147.619 210.312 157.422 222.405 157.422Z" fill="#2F2E41"/>
<path d="M219.079 152.71H212.427V164.629H219.079V152.71Z" fill="#2F2E41"/>
<path d="M232.384 152.71H225.731V164.629H232.384V152.71Z" fill="#2F2E41"/>
<path d="M222.513 168.577C222.986 167.531 221.108 165.66 218.318 164.399C215.529 163.137 212.884 162.962 212.411 164.008C211.938 165.055 213.816 166.925 216.605 168.187C219.395 169.449 222.04 169.623 222.513 168.577Z" fill="#2F2E41"/>
<path d="M235.245 167.928C235.746 166.896 233.92 164.974 231.166 163.637C228.412 162.3 225.773 162.053 225.271 163.086C224.77 164.119 226.596 166.04 229.35 167.377C232.104 168.715 234.743 168.961 235.245 167.928Z" fill="#2F2E41"/>
<path d="M201.165 115.162C199.396 107.244 205.048 99.2425 213.788 97.2909C222.528 95.3393 231.047 100.176 232.815 108.095C234.583 116.013 228.791 118.933 220.051 120.885C211.311 122.836 202.933 123.08 201.165 115.162Z" fill="#00B0FF"/>
<path d="M246.001 125.957C250.743 121.211 253.38 116.157 251.89 114.668C250.4 113.179 245.348 115.82 240.606 120.566C235.864 125.311 233.227 130.366 234.717 131.854C236.207 133.343 241.259 130.703 246.001 125.957Z" fill="#2F2E41"/>
<path d="M204.431 144.577C206.152 138.092 205.897 132.398 203.861 131.857C201.825 131.317 198.78 136.136 197.059 142.621C195.338 149.105 195.593 154.8 197.629 155.34C199.665 155.88 202.71 151.062 204.431 144.577Z" fill="#2F2E41"/>
</g>
<defs>
<clipPath id="clip0_40_1401">
<rect width="420" height="170.331" fill="white"/>
</clipPath>
</defs>
</svg>
